<svg width="83" height="89" viewBox="0 0 83 89" fill="none" xmlns="http://www.w3.org/2000/svg">
<g clip-path="url(#clip0_6041_3122)">
<path d="M3.95461 43.0225V0H13.9972C30.3881 0 37.3607 9.69961 37.3607 21.3809C37.3607 33.0621 30.3881 43.0225 13.9972 43.0225H3.95461ZM14.4135 32.4363H15.2981C23.3634 32.4363 26.8497 27.4301 26.8497 21.3809C26.8497 15.3838 23.3634 10.534 15.2981 10.534H14.4135V32.4363ZM67.0417 43.0225L65.2725 37.7033H48.7253L46.9562 43.0225H35.9769L51.5872 0.104299H62.4106L77.7607 43.0225H67.0417ZM51.4311 29.516H62.5667L56.9988 12.5678L51.4311 29.516ZM13.8932 88.2178L0 45.2996H11.1354L19.5649 72.5732L27.7864 45.2996H38.8697L25.1326 88.2178H13.8932ZM60.7889 89C47.8842 89 38.518 78.6225 38.518 66.6805C38.518 54.7906 47.8842 44.4131 60.7889 44.4131C74.3178 44.4131 84.7767 56.4594 82.7474 69.7572H48.8208C49.6014 75.1807 54.4406 79.4047 60.7368 79.4047C65.0557 79.4047 68.8022 77.1102 70.6754 73.7205H81.9669C79.2611 82.5336 71.0396 89 60.7889 89ZM49.4453 61.935H71.8722C70.5193 57.398 66.0964 54.1648 60.6848 54.1648C55.2731 54.1648 50.9022 57.4502 49.4453 61.935Z" fill="black"/>
</g>
<defs>
<clipPath id="clip0_6041_3122">
<rect width="83" height="89" fill="white"/>
</clipPath>
</defs>
</svg>
