<svg width="839" height="374" viewBox="0 0 839 374" fill="none" xmlns="http://www.w3.org/2000/svg">
<g clip-path="url(#clip0_6062_1605)">
<path d="M525.116 192V374H492.616L474.676 233.6H474.156L478.316 292.1L479.616 374H454.916V192H487.416L505.356 332.4H505.876L501.716 273.9L500.416 192H525.116ZM610.886 218V348C610.886 357.187 608.546 363.86 603.866 368.02C599.186 372.007 591.993 374 582.286 374H553.686V192H582.546C592.079 192 599.186 194.08 603.866 198.24C608.546 202.227 610.886 208.813 610.886 218ZM584.886 219.3C584.886 217.913 584.626 216.96 584.106 216.44C583.759 215.747 583.153 215.4 582.286 215.4H579.686V350.6H582.286C583.153 350.6 583.759 350.34 584.106 349.82C584.626 349.127 584.886 348.087 584.886 346.7V219.3ZM647.347 297.3C647.347 295.913 647.087 294.96 646.567 294.44C646.22 293.747 645.614 293.4 644.747 293.4H642.147V374H616.147V192H645.007C654.54 192 661.647 194.08 666.327 198.24C671.007 202.227 673.347 208.813 673.347 218V254.92C673.347 262.72 672.74 268.7 671.527 272.86C670.487 277.02 667.454 279.88 662.427 281.44V281.96C667.454 283.693 670.487 286.64 671.527 290.8C672.74 294.787 673.347 300.68 673.347 308.48V350.08C673.347 353.027 673.347 355.54 673.347 357.62C673.52 359.527 673.694 361.347 673.867 363.08C674.04 364.813 674.3 366.46 674.647 368.02C675.167 369.58 675.774 371.4 676.467 373.48V374H649.687C648.82 370.533 648.214 367.327 647.867 364.38C647.52 361.26 647.347 356.667 647.347 350.6V297.3ZM647.347 219.3C647.347 217.913 647.087 216.96 646.567 216.44C646.22 215.747 645.614 215.4 644.747 215.4H642.147V270H644.747C645.614 270 646.22 269.74 646.567 269.22C647.087 268.527 647.347 267.487 647.347 266.1V219.3ZM675.754 374L690.054 192H726.454L740.754 374H712.154L710.594 330.58H703.314L701.754 374H675.754ZM704.094 307.18H709.814L707.994 252.06L707.214 220.6H706.694L705.914 252.06L704.094 307.18ZM838.085 192L828.465 374H793.365L788.945 249.46L788.425 220.86H787.905L787.385 249.46L782.965 374H747.865L736.945 192H767.105V313.94V345.4H767.625L768.665 313.94L774.385 192H801.945L807.665 313.94L808.705 345.4H809.225L809.485 313.94V192H838.085Z" fill="#BFBDF7"/>
<path d="M28.8719 88.06H57.4719V184H31.4719V173.6H30.9519C29.5652 177.587 27.6585 180.62 25.2319 182.7C22.8052 184.607 19.8585 185.56 16.3919 185.56C11.3652 185.56 7.37852 183.393 4.43186 179.06C1.65852 174.553 0.271851 168.14 0.271851 159.82V29.04C0.271851 20.3733 2.87186 13.44 8.07186 8.23999C13.2719 3.04 20.2919 0.440002 29.1319 0.440002C37.7985 0.440002 44.6452 3.04 49.6719 8.23999C54.8719 13.2667 57.4719 20.2 57.4719 29.04V70.9H31.4719V27.74C31.4719 26.3533 31.2985 25.4 30.9519 24.88C30.6052 24.1867 29.9119 23.84 28.8719 23.84C28.0052 23.84 27.3119 24.1867 26.7919 24.88C26.4452 25.4 26.2719 26.3533 26.2719 27.74V159.3C26.2719 160.687 26.4452 161.727 26.7919 162.42C27.3119 162.94 28.0052 163.2 28.8719 163.2C29.9119 163.2 30.6052 162.94 30.9519 162.42C31.2985 161.727 31.4719 160.687 31.4719 159.3V111.46H28.8719V88.06ZM62.7328 156.96V29.04C62.7328 20.0267 65.4195 13.0067 70.7928 7.98C76.3395 2.95333 83.2728 0.440002 91.5928 0.440002C99.9128 0.440002 106.673 2.95333 111.873 7.98C117.246 12.8333 119.933 19.8533 119.933 29.04V156.96C119.933 166.147 117.246 173.253 111.873 178.28C106.499 183.133 99.6528 185.56 91.3328 185.56C83.0128 185.56 76.1661 183.133 70.7928 178.28C65.4195 173.253 62.7328 166.147 62.7328 156.96ZM91.3328 162.16C92.1995 162.16 92.8061 161.9 93.1528 161.38C93.6728 160.687 93.9328 159.647 93.9328 158.26V27.74C93.9328 26.3533 93.6728 25.4 93.1528 24.88C92.8061 24.1867 92.1995 23.84 91.3328 23.84C90.4661 23.84 89.7728 24.1867 89.2528 24.88C88.9061 25.4 88.7328 26.3533 88.7328 27.74V158.26C88.7328 159.647 88.9061 160.687 89.2528 161.38C89.7728 161.9 90.4661 162.16 91.3328 162.16ZM125.194 156.96V29.04C125.194 20.0267 127.88 13.0067 133.254 7.98C138.8 2.95333 145.734 0.440002 154.054 0.440002C162.374 0.440002 169.134 2.95333 174.334 7.98C179.707 12.8333 182.394 19.8533 182.394 29.04V156.96C182.394 166.147 179.707 173.253 174.334 178.28C168.96 183.133 162.114 185.56 153.794 185.56C145.474 185.56 138.627 183.133 133.254 178.28C127.88 173.253 125.194 166.147 125.194 156.96ZM153.794 162.16C154.66 162.16 155.267 161.9 155.614 161.38C156.134 160.687 156.394 159.647 156.394 158.26V27.74C156.394 26.3533 156.134 25.4 155.614 24.88C155.267 24.1867 154.66 23.84 153.794 23.84C152.927 23.84 152.234 24.1867 151.714 24.88C151.367 25.4 151.194 26.3533 151.194 27.74V158.26C151.194 159.647 151.367 160.687 151.714 161.38C152.234 161.9 152.927 162.16 153.794 162.16ZM244.855 28V158C244.855 167.187 242.515 173.86 237.835 178.02C233.155 182.007 225.961 184 216.255 184H187.655V2H216.515C226.048 2 233.155 4.08 237.835 8.23999C242.515 12.2267 244.855 18.8133 244.855 28ZM218.855 29.3C218.855 27.9133 218.595 26.96 218.075 26.44C217.728 25.7467 217.121 25.4 216.255 25.4H213.655V160.6H216.255C217.121 160.6 217.728 160.34 218.075 159.82C218.595 159.127 218.855 158.087 218.855 156.7V29.3ZM320.316 2V184H287.816L269.876 43.6H269.356L273.516 102.1L274.816 184H250.116V2H282.616L300.556 142.4H301.076L296.916 83.9L295.616 2H320.316ZM351.526 2V184H325.526V2H351.526ZM385.356 88.06H413.956V184H387.956V173.6H387.436C386.05 177.587 384.143 180.62 381.716 182.7C379.29 184.607 376.343 185.56 372.876 185.56C367.85 185.56 363.863 183.393 360.916 179.06C358.143 174.553 356.756 168.14 356.756 159.82V29.04C356.756 20.3733 359.356 13.44 364.556 8.23999C369.756 3.04 376.776 0.440002 385.616 0.440002C394.283 0.440002 401.13 3.04 406.156 8.23999C411.356 13.2667 413.956 20.2 413.956 29.04V70.9H387.956V27.74C387.956 26.3533 387.783 25.4 387.436 24.88C387.09 24.1867 386.396 23.84 385.356 23.84C384.49 23.84 383.796 24.1867 383.276 24.88C382.93 25.4 382.756 26.3533 382.756 27.74V159.3C382.756 160.687 382.93 161.727 383.276 162.42C383.796 162.94 384.49 163.2 385.356 163.2C386.396 163.2 387.09 162.94 387.436 162.42C387.783 161.727 387.956 160.687 387.956 159.3V111.46H385.356V88.06ZM476.417 2V184H450.417V104.96H445.217V184H419.217V2H445.217V81.56H450.417V2H476.417ZM537.578 2V25.4H521.978V184H495.978V25.4H480.378V2H537.578Z" fill="#BFBDF7"/>
</g>
<defs>
<clipPath id="clip0_6062_1605">
<rect width="839" height="374" fill="white"/>
</clipPath>
</defs>
</svg>
