<?xml version="1.0" encoding="UTF-8"?>
<svg id="Layer_2" data-name="Layer 2" xmlns="http://www.w3.org/2000/svg" viewBox="0 0 575.95 503.35">
  <defs>
    <style>
      .cls-1 {
        fill: #212121;
      }
    </style>
  </defs>
  <g id="Layer_2-2" data-name="Layer 2">
    <path class="cls-1" d="M543.27,32.69C522.19,11.61,494.16,0,464.35,0H111.6c-29.81,0-57.84,11.61-78.92,32.69C11.61,53.77,0,81.79,0,111.6v280.15c0,29.81,11.61,57.84,32.69,78.92,21.08,21.08,49.1,32.69,78.92,32.69h352.75c29.81,0,57.84-11.61,78.92-32.69,21.08-21.08,32.69-49.11,32.69-78.92V111.6c0-29.81-11.61-57.84-32.69-78.92ZM111.6,7.76h352.75c57.26,0,103.85,46.59,103.85,103.85v83.09h-199.96v-7.21h-160.53v7.21H7.76v-83.09C7.76,54.34,54.34,7.76,111.6,7.76ZM464.35,495.6H111.6c-57.26,0-103.85-46.59-103.85-103.85v-189.3h199.96v7.21h160.53v-7.21h199.96v189.3c0,57.26-46.59,103.85-103.85,103.85Z"/>
  </g>
</svg>