<?xml version="1.0" encoding="UTF-8"?>
<svg id="Layer_2" data-name="Layer 2" xmlns="http://www.w3.org/2000/svg" viewBox="0 0 603.1 513.27">
  <defs>
    <style>
      .cls-1 {
        fill-rule: evenodd;
      }
    </style>
  </defs>
  <g id="Layer_2-2" data-name="Layer 2">
    <path class="cls-1" d="M492.97.02c13.36,0,40.54,5.67,64.23,20.91,23.83,15.33,44.39,40.55,43.46,79.52-.01,41.6-19.25,72.15-46.1,91.11,1.12,5.66,2.32,11.24,3.72,16.73h28.94c8.77,0,15.87,7.09,15.87,15.84v146.88c0,24.86-9.36,60.31-31.41,89.6-22.15,29.42-57.13,52.66-108.1,52.66H139.24C66.37,510.48,3.93,455.29,1.21,368.38-.83,303.22.19,247.32.83,223.55c.23-8.54,7.25-15.26,15.77-15.26h33.24c.83-4.09,1.62-8.25,2.41-12.44C22.51,176.47,1.21,142.62,1.21,96.74c0-17.71,8.06-41.18,23.89-60.53C40.99,16.77,64.89,1.29,96.65.02h.06s.06,0,.06,0c134.94-.04,390.43,0,396.19,0ZM53.51,189.06c.96-5.16,1.95-10.37,2.99-15.56-26.55-16.88-43.14-45.23-43.14-76.85C16.66,42.98,66.26,9.8,116.99,9.8h357.14c39.73,0,70.44,10.69,90.45,27.98,20.07,17.35,29.15,41.18,25.73,66.72-4.29,31.96-20.86,52.94-39.73,66.01.91,4.73,1.77,9.46,2.67,14.17,26.83-20.01,41.08-51.15,41.08-84.35.88-36.23-18.05-59.6-40.55-74.08-22.65-14.57-48.63-19.9-60.8-19.9-5.76,0-261.17-.04-396.13,0-29.61,1.2-51.89,15.59-66.83,33.86C14.99,58.59,7.55,80.67,7.55,96.74c0,42.56,19.15,73.88,45.96,92.32ZM549.22,163.69c16.66-12.28,30.95-31.36,34.79-60.03,3.14-23.38-5.1-45.11-23.59-61.08-14.84-12.82-36.41-22.05-64.23-25.22,44.16,8.54,65,62.19,65,102.63,0,15.9-5.24,27.86-13.5,36.6.54,2.37,1.04,4.74,1.53,7.11ZM545.87,148.96c5.51-7.18,8.98-16.6,8.98-28.98,0-42.16-23.68-97.56-72.36-97.56h-86.11c-15.13,0-33.09,6.37-41.61,11.06-17.64,9.71-36.84,28.43-36.04,57.68.51,18.66,9.94,31.21,21.52,39.84,15.31,11.4,34.13,16.03,52.22,21.09,11.4-15.26,26.98-33.19,44.72-46.53,18.36-13.81,39.57-23.1,61.04-18.58,16,3.37,26.78,13.94,34.24,26.73,6.35,10.87,10.43,23.54,13.4,35.25ZM388.48,157.54c-18.14-5.11-36.67-10.03-52.03-21.47-12.71-9.47-23.5-23.66-24.07-44.75-.89-32.57,20.6-53.09,39.32-63.4,8.69-4.78,26.14-11.11,41.94-11.79h-183.53c15.79.68,33.25,7.01,41.94,11.79,18.72,10.31,40.21,30.82,39.32,63.4-.58,21.09-11.36,35.28-24.07,44.75-14.33,10.68-31.38,15.59-48.3,20.42,1.1,1.53,2.15,3.02,3.16,4.47,6.01-.24,14.06.51,22.61,2.94l20.64-4.02h73.7l23.09,4.4c9.03-2.74,17.6-3.58,23.9-3.32.77-1.11,1.57-2.25,2.4-3.41ZM385.79,167.29c-23.91-.95-48.41,11.88-59.06,33.57l2.78,7.43h70.96c-2.03-17.85-7.41-28.52-14.68-41ZM406.86,208.29h144.88c-4.25-17.16-6.62-34.77-10.62-51.98-3.05-13.11-7.2-27.54-14.13-39.42-6.9-11.82-16.39-20.84-30.07-23.72-18.82-3.96-38.12,4.06-55.91,17.44-20.42,15.36-38.15,37.3-49.57,53.75,7.41,12.75,13.37,24.83,15.43,43.92ZM322.73,208.29l-2.89-7.71c1.81-3.9,3.84-7.66,6.33-11.18h-44.14c2.49,3.52,4.52,7.28,6.33,11.18l-2.89,7.71h37.26ZM278.7,208.29l2.78-7.43c-10.66-21.69-35.15-34.52-59.06-33.57-7.27,12.48-12.65,23.15-14.68,41h70.96ZM201.35,208.29c2.06-19.09,8.01-31.17,15.43-43.92-11.53-16.61-29.49-38.82-50.16-54.19-17.63-13.12-36.72-20.92-55.32-17-14.2,2.99-23.85,12.56-30.84,25.04-7.02,12.54-11.15,27.69-14.39,41.22-3.85,16.06-6.55,32.78-9.77,48.86h145.04ZM276.89,183.06h54.42c5.93-6.39,12.78-11.08,19.74-14.45l-12.57-2.4h-72.49l-9.86,1.92c7.3,3.4,14.54,8.23,20.75,14.92ZM214.96,151.04c16.9-4.79,34.2-9.38,48.52-20.05,11.59-8.63,21.01-21.18,21.52-39.84.8-29.25-18.4-47.96-36.04-57.68-8.52-4.69-26.48-11.06-41.61-11.06h-86.11c-48.68,0-72.36,55.41-72.36,97.56,0,14.66,4.86,25.2,12.28,32.78,3.1-12.3,7.2-25.94,13.75-37.64,7.52-13.44,18.46-24.65,35.07-28.15,21.24-4.47,42.22,4.57,60.43,18.12,17.59,13.09,33.1,30.74,44.55,45.95ZM59.45,159.86c-10.17-8.91-16.91-21.83-16.91-39.88,0-44.49,25-101.84,75.63-103.84h-1.18c-58.16,0-94.62,38.24-97.27,80.7.03,32.02,16.75,55.62,38.17,69.99.5-2.33,1.02-4.66,1.56-6.98ZM159.08,114.34c8.43,4.51,18.56,12.5,22.89,16.87,3.45,3.48,5.67,6.66,6.7,9.51,1.05,2.9.98,5.89-.9,8.17-1.77,2.15-4.5,2.87-6.98,2.87-2.72,0-6-.78-8.26-2.33-7.25-4.98-21.79-16.58-25.58-20.4-3.68-3.71-6.15-11.75-1.73-15.75,3.9-3.53,9.93-1.03,13.86,1.07ZM151.46,124.57c3.36,3.4,17.35,14.6,24.5,19.53,1.37.7,5.52,2.45,6.89.78.08-.1.38-.48-.17-2-.59-1.64-2.11-4.05-5.24-7.21-3.91-3.95-13.53-11.55-21.37-15.74-1.26-.67-4.99-2.94-6.6-1.97-1.3,1.51.87,5.49,1.98,6.61ZM458.38,117.88c-.83-.09-2.74.18-6.25,2.05-7.84,4.19-17.46,11.79-21.37,15.74-3.13,3.16-4.65,5.57-5.24,7.21-.55,1.52-.25,1.9-.17,2,1.37,1.67,5.52-.08,6.89-.78,7.15-4.93,21.14-16.13,24.5-19.53.62-.62,1.32-1.78,1.77-3.16.2-.61,1.07-3.4-.13-3.54ZM461.26,129.02c-7.6,7.67-16.85,14.41-25.73,20.51-4.46,2.36-11.39,3.87-15.09-.64-4.75-5.79,1.81-13.65,5.8-17.68,4.33-4.37,14.46-12.36,22.89-16.87,3.93-2.1,9.96-4.6,13.86-1.07,4.42,4,1.95,12.04-1.73,15.75ZM16.6,214.63c-5.12,0-9.29,4.03-9.42,9.1-.63,23.69-1.66,79.46.38,144.46,2.62,83.52,62.32,136.06,131.87,138.75h324.16c48.74,0,81.93-22.1,103.02-50.13,21.19-28.15,30.14-62.25,30.14-85.8v-146.88c0-5.25-4.26-9.51-9.52-9.51h-145.85c-.95,9.87-8.22,15-17.95,15h-240.79c-9.02,0-16.49-6.06-17.86-15H16.6ZM171.23,214.63c1.24,5.43,5.88,8.66,11.4,8.66h240.79c6.17,0,10.77-2.33,11.57-8.66H171.23ZM302.16,289.47c-.91,0-1.69.75-1.69,1.72s.78,1.72,1.69,1.72,1.69-.75,1.69-1.72-.78-1.72-1.69-1.72ZM294.12,291.19c0-4.43,3.57-8.06,8.04-8.06s8.04,3.63,8.04,8.06-3.57,8.06-8.04,8.06-8.04-3.63-8.04-8.06Z"/>
  </g>
</svg>